<svg id="Слой_1" data-name="Слой 1" xmlns="http://www.w3.org/2000/svg" viewBox="0 0 140 80"><defs><style>.cls-1{fill:#001ea3;}.cls-2{fill:#ff8c00;}.cls-3{fill:#f39627;}</style></defs><title>QiwiWallet</title><path class="cls-1" d="M69.66,38.79c2.2,0,3.52-1.91,3.52-5s-1.32-5-3.52-5-3.54,1.84-3.54,5,1.38,5,3.54,5m6.13,6.95a.27.27,0,0,1-.41,0L74.3,44.24a5.17,5.17,0,0,0-4.63-2.18c-4.45,0-7.24-3.2-7.24-8.29s2.79-8.31,7.24-8.31,7.22,3.2,7.22,8.31c0,2.59-.91,5.22-2.43,6.13-.27.16-.27.23,0,.32a5.16,5.16,0,0,1,2.63,2l1,1.38a.27.27,0,0,1,0,.41Z"/><path class="cls-1" d="M79.7,25.71h3.09a.3.3,0,0,1,.3.3V41.51a.3.3,0,0,1-.3.3H79.7a.29.29,0,0,1-.29-.29V26A.3.3,0,0,1,79.7,25.71Z"/><path class="cls-1" d="M104.11,36.92c-.41,1.57-.75,3.07-1,4.61a.29.29,0,0,1-.32.27H98.59a.29.29,0,0,1-.32-.27c-.25-1.32-.5-2.52-.82-3.77l-.7-3c-.14-.59-.32-1.54-.45-2.34,0-.32-.32-.32-.36,0-.14.79-.32,1.73-.45,2.34l-.7,3c-.3,1.25-.55,2.45-.82,3.77a.29.29,0,0,1-.32.27H89.49a.29.29,0,0,1-.32-.27c-.3-1.54-.64-3-1-4.61L85.33,26c-.07-.18,0-.32.25-.32h3.13a.32.32,0,0,1,.34.25l1.54,6.13a36.42,36.42,0,0,1,.84,5c0,.3.36.32.41,0a42.26,42.26,0,0,1,1-5L94.51,26a.32.32,0,0,1,.32-.25h2.59a.32.32,0,0,1,.32.25l1.68,6.13a42.34,42.34,0,0,1,1,5c0,.32.36.3.39,0a33.3,33.3,0,0,1,.84-5L103.18,26a.32.32,0,0,1,.34-.25h3.13c.2,0,.32.14.25.32Z"/><path class="cls-1" d="M109.45,25.71h3.09a.3.3,0,0,1,.3.3V41.51a.3.3,0,0,1-.3.3h-3.09a.29.29,0,0,1-.29-.29V26A.3.3,0,0,1,109.45,25.71Z"/><path class="cls-2" d="M56.24,60.87c.38.47-.2,1-.63.57-4.32-3.82-7.95-4.91-11.54-5.06a44.57,44.57,0,0,0-5.78.28l-1.2.1-.53,0a19.8,19.8,0,0,1-2.12.12A19.13,19.13,0,0,1,25,54.45a18,18,0,0,1-6.9-6.8,18.63,18.63,0,0,1-2.49-9.42,18.88,18.88,0,0,1,2.49-9.46A18.53,18.53,0,0,1,34.19,19.4a19.36,19.36,0,0,1,9.59,2.46,18.16,18.16,0,0,1,6.92,6.82,18.63,18.63,0,0,1,2.52,9.45A19.41,19.41,0,0,1,52.84,42c0,.18-.08.4-.14.65s-.1.41-.16.61h0a21.57,21.57,0,0,1-2.12,4.53c-.12.2-.19,0-.21-.07a8.61,8.61,0,0,0-3.87-6.44l-.11-.07a9.68,9.68,0,0,0-1.16-.61,12,12,0,0,0-1.71-.6c-.37-.1-1.21-.06-.91-.36a17.62,17.62,0,0,1,4,0h.12q.06-.65.06-1.34A12,12,0,0,0,43,29.35a11.8,11.8,0,0,0-8.7-3.6,11.48,11.48,0,0,0-8.68,3.6,12.13,12.13,0,0,0-3.5,8.83A11.86,11.86,0,0,0,25.74,47a11.62,11.62,0,0,0,8.59,3.59h.48v-.12c-.19-2.47-.23-4.51.27-3.69.18.29.36.57.53.83a17.79,17.79,0,0,0,2,2.48l.1.1c2.39,2.42,4.74,3,7.24,3.63l.16,0,1.24.31c3,.79,6.19,2.07,9.94,6.72M48,46c-.37-.11-.64,0-.78.22a2,2,0,0,0,.36,1.77c.42.66.78,1,1.06,1a.33.33,0,0,0,.25-.12,1.41,1.41,0,0,0,.14-1A2.5,2.5,0,0,0,48,46M43.84,49a1.1,1.1,0,0,0-.88.37,1.79,1.79,0,0,0,.49,2.35,2,2,0,0,0,1.28.46,1.36,1.36,0,0,0,1.12-.5c.44-.59.19-1.43-.65-2.14A2.13,2.13,0,0,0,43.84,49"/><path class="cls-3" d="M83,45.42l-2.19,2.53V45.42H79.35v6.37h1.48V49.16h0a1.72,1.72,0,0,1,1.77,1.27,8,8,0,0,0,.57,1.25l.06.1h1.6l-.17-.31a9.75,9.75,0,0,1-.53-1.19L84,50a2.87,2.87,0,0,0-1.78-1.86l2.67-2.77Z"/><path class="cls-3" d="M88.14,45.28A3.13,3.13,0,0,0,85,48.65,3,3,0,0,0,88,51.92a3.13,3.13,0,0,0,3.17-3.37A3,3,0,0,0,88.14,45.28Zm1.55,3.31c0,1.22-.67,2.1-1.6,2.1s-1.6-.87-1.6-2.08c0-1,.5-2.1,1.62-2.1S89.69,47.87,89.69,48.59Z"/><polygon class="cls-3" points="98.4 50.52 96.74 50.52 96.74 45.42 95.27 45.42 95.27 50.52 93.61 50.52 93.61 45.42 92.13 45.42 92.13 51.78 99.89 51.78 99.89 45.42 98.4 45.42 98.4 50.52"/><path class="cls-3" d="M104,45.28c-1.77,0-3,1.4-3,3.42a3,3,0,0,0,3.13,3.21,5,5,0,0,0,2.06-.39l.16-.07-.28-1.18-.23.1a3.69,3.69,0,0,1-1.57.29A1.69,1.69,0,0,1,102.5,49h4.15l0-.24a3.87,3.87,0,0,0,0-.47A2.72,2.72,0,0,0,104,45.28Zm1.2,2.53h-2.7A1.52,1.52,0,0,1,104,46.47a1.19,1.19,0,0,1,.88.33A1.65,1.65,0,0,1,105.24,47.81Z"/><path class="cls-3" d="M108.28,48c0,1.36-.08,2.07-.54,2.41a1.15,1.15,0,0,1-.49.2l-.2,0,.16,1.23h.18a1.93,1.93,0,0,0,1.29-.4c.86-.56,1-1.74,1-3.47V46.68h1.63v5.1h1.48V45.42h-4.55Z"/><path class="cls-3" d="M117,45.28c-1.77,0-3,1.4-3,3.42a3,3,0,0,0,3.13,3.21,5,5,0,0,0,2.06-.39l.16-.07-.28-1.18-.23.1a3.68,3.68,0,0,1-1.57.29A1.69,1.69,0,0,1,115.45,49h4.15l0-.23a3.91,3.91,0,0,0,0-.48A2.72,2.72,0,0,0,117,45.28Zm1.2,2.53h-2.7a1.52,1.52,0,0,1,1.41-1.34,1.19,1.19,0,0,1,.88.33A1.64,1.64,0,0,1,118.19,47.81Z"/><path class="cls-3" d="M125.62,50.29l-.1-.25h0a2.87,2.87,0,0,0-1.78-1.86l2.67-2.77h-1.9l-2.19,2.53V45.42h-1.48v6.37h1.48V49.16h0a1.72,1.72,0,0,1,1.77,1.27,8.08,8.08,0,0,0,.57,1.25l.06.1h1.6l-.17-.31A9.8,9.8,0,0,1,125.62,50.29Z"/><rect class="cls-2" x="115.89" y="43.64" width="0.67" height="1"/><rect class="cls-2" x="117.45" y="43.64" width="0.67" height="1"/></svg>