<svg xmlns="http://www.w3.org/2000/svg" viewBox="0 0 140 80">
  <defs>
    <style>
      .a {
        fill: #39b54a;
      }
    </style>
  </defs>
  <title>Biocoin</title>
  <g>
    <path class="a" d="M41.745,30.544c-1.375,1.374-4.113.861-4.113.861s-.512-2.736.86-4.112c1.375-1.375,4.111-.861,4.111-.861S43.114,29.171,41.745,30.544Z"/>
    <path class="a" d="M101.796,30.544c-1.377,1.374-4.111.861-4.111.861s-.514-2.736.859-4.112c1.375-1.375,4.112-.861,4.112-.861S103.167,29.171,101.796,30.544Z"/>
    <path class="a" d="M52.69,33.649a8.2105,8.2105,0,1,0,8.208,8.212A8.211,8.211,0,0,0,52.69,33.649Zm0,13.015a4.8025,4.8025,0,1,1,4.799-4.803A4.8021,4.8021,0,0,1,52.69,46.664Z"/>
    <path class="a" d="M85.518,33.649a8.2105,8.2105,0,1,0,8.209,8.212A8.2131,8.2131,0,0,0,85.518,33.649Zm0,13.015a4.8025,4.8025,0,1,1,4.801-4.803A4.8049,4.8049,0,0,1,85.518,46.664Z"/>
    <path class="a" d="M37.55,49.827V33.92h3.373V49.827Z"/>
    <path class="a" d="M97.687,49.827V33.92h3.372V49.827Z"/>
    <path class="a" d="M123,33.92h-6.896v7.529q0,1.2825.164,4.385h-.074L110.547,33.92h-4.255V49.827h3.015V42.341c0-.907-.072-2.424-.207-4.548h.1l5.65,12.035h4.288V37.044h1.868Z"/>
    <path class="a" d="M32.984,42.755a3.5072,3.5072,0,0,0-2.183-1.263v-.11a2.6535,2.6535,0,0,0,1.779-1.099,3.8379,3.8379,0,0,0,.671-2.339,3.3485,3.3485,0,0,0-1.53-3.062,9.528,9.528,0,0,0-4.913-.963H21.857V46.898H19.944L18,49.827l9.81.001a6.8069,6.8069,0,0,0,4.271-1.218,4.0507,4.0507,0,0,0,1.573-3.396A4.1053,4.1053,0,0,0,32.984,42.755ZM25.23,36.684h1.776a4.2987,4.2987,0,0,1,2.113.396,1.4011,1.4011,0,0,1,.671,1.312,1.5891,1.5891,0,0,1-.615,1.404,3.6106,3.6106,0,0,1-1.987.423H25.23Zm4.256,9.825a3.2421,3.2421,0,0,1-2.056.535h-2.2V42.897h2.091q2.8275,0,2.829,1.981A1.9717,1.9717,0,0,1,29.486,46.509Z"/>
    <path class="a" d="M73.374,46.569c-3.427.003-1.86.005-1.89.005a4.7125,4.7125,0,0,1,0-9.425c.029,0-1.558.004,2.201.005l1.616-3.347c-3.759,0-3.788-.001-3.817-.001a8.0565,8.0565,0,0,0,0,16.113c.029,0,.059-.002,3.485-.002Z"/>
  </g>
</svg>
