<svg id="Слой_1" data-name="Слой 1" xmlns="http://www.w3.org/2000/svg" viewBox="0 0 140 80"><defs><style>.cls-1{fill:#e10611;}.cls-2{fill:#fff;}</style></defs><title>PhoneMTS</title><path class="cls-1" d="M114.28,44a35.69,35.69,0,0,1-4.09.25c-2.68,0-3.2-.86-3.2-3V38.71c0-2.18.46-3,3.2-3a30.8,30.8,0,0,1,3.88.28l.28-3.93a39.13,39.13,0,0,0-4.52-.34c-5.57,0-7.6,1.84-7.6,6.31v3.89c0,4.93,2.46,6.32,7.58,6.32,2.06,0,4.8-.34,4.8-.34Z"/><polygon class="cls-1" points="86.39 36.05 91.01 36.05 91.01 48 95.81 48 95.81 36.05 100.43 36.05 100.71 32 86.11 32 86.39 36.05"/><polygon class="cls-1" points="76.6 46.39 79.16 40.26 79.44 40.26 79.97 48 84.61 48 83.55 32 79.07 32 75.2 41.09 74.92 41.09 70.9 32 66.47 32 65.41 48 69.93 48 70.4 40.26 70.68 40.26 73.55 46.39 76.6 46.39"/><path class="cls-1" d="M57.41,52.8a3.2,3.2,0,0,1-3.2,3.2H28.61a3.2,3.2,0,0,1-3.2-3.2V27.2a3.2,3.2,0,0,1,3.2-3.2h25.6a3.2,3.2,0,0,1,3.2,3.2Zm-16-.94c6,0,8.66-4.76,8.66-9.49,0-6.65-4.62-14.23-8.66-14.23s-8.66,7.58-8.66,14.23c0,4.72,2.68,9.49,8.66,9.49"/><path class="cls-2" d="M50.07,42.35c0-6.65-4.62-14.23-8.66-14.23s-8.66,7.58-8.66,14.23c0,4.72,2.67,9.49,8.66,9.49S50.07,47.07,50.07,42.35Z"/></svg>