<svg xmlns="http://www.w3.org/2000/svg" xmlns:xlink="http://www.w3.org/1999/xlink" viewBox="0 0 135 135">
  <defs>
    <style>
      .a {
        fill: url(#a);
      }

      .b {
        fill: #f59d1a;
      }

      .c {
        fill: #e7001b;
      }

      .d {
        fill: #fc5f01;
      }

      .e {
        fill: #24a84d;
      }

      .f {
        fill: url(#b);
      }
    </style>
    <linearGradient id="a" data-name="Безымянный градиент" x1="33.4" y1="1087.88" x2="101.6" y2="1087.88" gradientTransform="translate(0 -1003)" gradientUnits="userSpaceOnUse">
      <stop offset="0" stop-color="#241e5c"/>
      <stop offset="1" stop-color="#004d9f"/>
    </linearGradient>
    <linearGradient id="b" data-name="Безымянный градиент 3" x1="85.01" y1="27.28" x2="105.89" y2="27.28" gradientTransform="matrix(1, 0, 0, -1, 0, 136)" gradientUnits="userSpaceOnUse">
      <stop offset="0.01" stop-color="#0fa5e1"/>
      <stop offset="0.35" stop-color="#0c9cda"/>
      <stop offset="0.91" stop-color="#0483c6"/>
      <stop offset="1" stop-color="#037ec2"/>
    </linearGradient>
  </defs>
  <title>BankCard_Big</title>
  <path class="a" d="M59.32,74.24,50.38,95.59H44.55l-4.41-17a2.34,2.34,0,0,0-1.3-1.88,23.06,23.06,0,0,0-5.44-1.82l.13-.62h9.35a2.56,2.56,0,0,1,2.55,2.2l2.33,12.34L53.5,74.3ZM82.15,88.59c0-5.61-7.77-5.94-7.71-8.45,0-.76.75-1.58,2.34-1.76a10.41,10.41,0,0,1,5.43,1l1-4.51A14.81,14.81,0,0,0,78,73.88c-5.46,0-9.29,2.9-9.32,7.05,0,3.08,2.73,4.78,4.82,5.79s2.86,1.72,2.86,2.64c0,1.43-1.72,2.06-3.31,2.08a11.54,11.54,0,0,1-5.63-1.34l-1,4.67a16.69,16.69,0,0,0,6.13,1.1c5.79,0,9.58-2.86,9.6-7.29m14.38,7h5L97.2,74.24H92.49a2.51,2.51,0,0,0-2.34,1.56L81.87,95.56h5.78l1.1-3.18h7.05ZM90.39,88l2.9-8L95,88ZM67.19,74.24,62.64,95.59H57.12l4.56-21.35Z"/>
  <g>
    <g>
      <path class="b" d="M103.24,31.92A22.11,22.11,0,1,1,80.95,10h.19a22,22,0,0,1,22.11,21.88h0Z"/>
      <path class="c" d="M76,31.92A22.11,22.11,0,1,1,53.68,10h.19A22,22,0,0,1,76,31.89h0Z"/>
      <path class="d" d="M67.5,14.67a21.81,21.81,0,0,0,0,34.51,21.81,21.81,0,0,0,0-34.51Z"/>
    </g>
    <g>
      <path d="M36.67,64.68H35.42v-5.8h1.23v.75a4,4,0,0,1,1.73-.85,2.72,2.72,0,0,1,2,1.1,2.32,2.32,0,0,1,2-1.1,2.2,2.2,0,0,1,2.34,1.78v4.09H43.47V61.05a1.1,1.1,0,0,0-1.1-1.1h-.23a1.34,1.34,0,0,0-1.47,1.1v3.61H39.41V61a1.26,1.26,0,0,0-1.25-1.1c-1.47,0-1.5,1.17-1.5,1.17Z"/>
      <path d="M74.82,58.74a4,4,0,0,0-1.73.85v-.7H71.88v5.8h1.25V61.05s0-1.17,1.5-1.17a1.24,1.24,0,0,1,.65.16h0l.41-1.1A2.28,2.28,0,0,0,74.82,58.74Z"/>
      <path d="M92.52,58.74a4,4,0,0,0-1.73.85v-.7H89.54v5.8h1.25V61.05s0-1.17,1.5-1.17a1.24,1.24,0,0,1,.65.16h0l.41-1.1a2.28,2.28,0,0,0-.85-.18Z"/>
      <path d="M48.7,58.72a3,3,0,0,0-2.93,3h0v.1a3.06,3.06,0,0,0,2.93,3.08,3.3,3.3,0,0,0,1.91-.77v.59h1.21V58.89H50.66v.75a2.91,2.91,0,0,0-2-.9Zm.24,1.18a1.94,1.94,0,1,1-1.83,2v-.11a1.88,1.88,0,0,1,1.82-1.94Z"/>
      <path d="M84.71,58.72a3,3,0,0,0-2.87,3.07h0a3.06,3.06,0,0,0,2.93,3.08,3.3,3.3,0,0,0,1.91-.77v.59h1.23V58.84H86.67v.75a2.91,2.91,0,0,0-2-.9ZM85,59.9A1.94,1.94,0,1,1,83.18,62h0v-.14A1.88,1.88,0,0,1,85,59.9Z"/>
      <path d="M96.57,58.72a3,3,0,0,0-2.87,3.07h0a3.06,3.06,0,0,0,2.93,3.08,3.3,3.3,0,0,0,1.91-.77v.59h1.23V56.55h-1.2v3a2.91,2.91,0,0,0-2-.9Zm.24,1.18a1.94,1.94,0,1,1-1.83,2v-.11a1.88,1.88,0,0,1,1.82-1.94Z"/>
      <path d="M55.68,64.88a5.11,5.11,0,0,1-2.46-.78l.54-.82a5.87,5.87,0,0,0,1.91.51c.52,0,1.4-.16,1.4-.68s-1.46-.7-1.46-.7-2.2,0-2.2-1.83c0-1.1,1.1-1.85,2.51-1.85a8,8,0,0,1,2.33.7l-.62.95a7.7,7.7,0,0,0-1.79-.48c-.53,0-1.1.23-1.1.68,0,1.23,3.66-.1,3.66,2.39,0,1.63-1.5,1.92-2.68,1.92Z"/>
      <path d="M60.38,57.21V58.9h-1.1v1.22h1.1V63a1.88,1.88,0,0,0,1.78,2h.26a7.23,7.23,0,0,0,1.75-.43l-.49-1.26a1.68,1.68,0,0,1-1,.37c-1,0-1-.65-1-.65V60.12h2V58.9H61.73V57.21Z"/>
      <path d="M67.77,58.79A3.09,3.09,0,0,0,67.9,65h0a5.69,5.69,0,0,0,2.28-.82l-.57-1a3.65,3.65,0,0,1-1.7.64,1.66,1.66,0,0,1-1.7-1.55h4.28S70.83,58.79,67.77,58.79Zm-.19,1.1h.19a1.4,1.4,0,0,1,1.49,1.29v.15h-3A1.35,1.35,0,0,1,67.58,60h.06Z"/>
      <path d="M80.54,63.14l.57,1.1a4,4,0,0,1-1.94.58,3.12,3.12,0,0,1-3.3-2.94h0v-.12a2.93,2.93,0,0,1,2.81-3H79a4.4,4.4,0,0,1,2.14.65l-.65,1.1a1.88,1.88,0,0,0-3.3,1.29,1.79,1.79,0,0,0,1.66,1.91H79a2.64,2.64,0,0,0,1.53-.62Z"/>
    </g>
  </g>
  <g>
    <path class="e" d="M74.54,106.74,70,116.44h-.49v-11.8H63.22v20h5.39a3.63,3.63,0,0,0,3.3-2.14l4.47-9.69h.46V124.6H83.2v-20H77.8a3.63,3.63,0,0,0-3.3,2.14"/>
    <path class="e" d="M50.66,107.24,48,116.44h-.46l-2.65-9.2a3.63,3.63,0,0,0-3.49-2.62H35.08v20h6.36V112.81h.46l3.63,11.8h4.54l3.63-11.8h.46v11.8H60.5v-20H54.15a3.63,3.63,0,0,0-3.49,2.6"/>
    <path class="e" d="M85.95,113.71V124.6h6.34v-6.35h6.82a6.8,6.8,0,0,0,6.42-4.54Z"/>
    <path class="f" d="M99.08,104.64H85a10,10,0,0,0,9.81,8.17h10.93a6.92,6.92,0,0,0,.17-1.36,6.81,6.81,0,0,0-6.8-6.8"/>
  </g>
</svg>
